# This file uses centimeters as units for non-parametric coordinates.

mtllib bottle.mtl
g default
v 0.201634 -0.541228 -0.105574
v 0.124348 -0.541228 -0.182860
v 0.018774 -0.541228 -0.211149
v -0.086801 -0.541228 -0.182860
v -0.164087 -0.541228 -0.105574
v -0.192375 -0.541228 0.000000
v -0.164087 -0.541228 0.105574
v -0.086801 -0.541228 0.182860
v 0.018774 -0.541228 0.211149
v 0.124348 -0.541228 0.182860
v 0.201634 -0.541228 0.105574
v 0.229922 -0.541228 0.000000
v 0.168883 -0.463630 -0.086666
v 0.105439 -0.463630 -0.150109
v 0.018774 -0.463630 -0.173331
v -0.067892 -0.463630 -0.150109
v -0.131336 -0.463630 -0.086666
v -0.154558 -0.463630 0.000000
v -0.131336 -0.463630 0.086666
v -0.067892 -0.463630 0.150109
v 0.018774 -0.463630 0.173331
v 0.105439 -0.463630 0.150109
v 0.168883 -0.463630 0.086666
v 0.192105 -0.463630 0.000000
v 0.151795 -0.393286 -0.076800
v 0.095574 -0.393286 -0.133022
v 0.018774 -0.393286 -0.153601
v -0.058027 -0.393286 -0.133022
v -0.114248 -0.393286 -0.076800
v -0.134827 -0.393286 0.000000
v -0.114248 -0.393286 0.076800
v -0.058027 -0.393286 0.133022
v 0.018774 -0.393286 0.153601
v 0.095574 -0.393286 0.133022
v 0.151795 -0.393286 0.076800
v 0.172374 -0.393286 0.000000
v 0.158915 -0.296345 -0.080911
v 0.099684 -0.296345 -0.140142
v 0.018774 -0.296345 -0.161822
v -0.062137 -0.296345 -0.140142
v -0.121368 -0.296345 -0.080911
v -0.143048 -0.296345 0.000000
v -0.121368 -0.296345 0.080911
v -0.062137 -0.296345 0.140142
v 0.018774 -0.296345 0.161822
v 0.099684 -0.296345 0.140142
v 0.158915 -0.296345 0.080911
v 0.180595 -0.296345 0.000000
v 0.173155 -0.199405 -0.089132
v 0.107906 -0.199405 -0.154381
v 0.018774 -0.199405 -0.178264
v -0.070358 -0.199405 -0.154381
v -0.135608 -0.199405 -0.089132
v -0.159490 -0.199405 0.000000
v -0.135608 -0.199405 0.089132
v -0.070358 -0.199405 0.154381
v 0.018774 -0.199405 0.178264
v 0.107906 -0.199405 0.154381
v 0.173155 -0.199405 0.089132
v 0.197037 -0.199405 0.000000
v 0.187394 -0.102465 -0.097353
v 0.116127 -0.102465 -0.168621
v 0.018774 -0.102465 -0.194706
v -0.078580 -0.102465 -0.168621
v -0.149847 -0.102465 -0.097353
v -0.175933 -0.102465 0.000000
v -0.149847 -0.102465 0.097353
v -0.078580 -0.102465 0.168621
v 0.018774 -0.102465 0.194706
v 0.116127 -0.102465 0.168621
v 0.187394 -0.102465 0.097353
v 0.213480 -0.102465 0.000000
v 0.205905 -0.005525 -0.108041
v 0.126814 -0.005525 -0.187132
v 0.018774 -0.005525 -0.216081
v -0.089267 -0.005525 -0.187132
v -0.168358 -0.005525 -0.108041
v -0.197308 -0.005525 0.000000
v -0.168358 -0.005525 0.108041
v -0.089267 -0.005525 0.187132
v 0.018774 -0.005525 0.216081
v 0.126814 -0.005525 0.187132
v 0.205905 -0.005525 0.108041
v 0.234855 -0.005525 0.000000
v 0.205905 0.091416 -0.108041
v 0.126814 0.091416 -0.187132
v 0.018774 0.091416 -0.216081
v -0.089267 0.091416 -0.187132
v -0.168358 0.091416 -0.108041
v -0.197308 0.091416 0.000000
v -0.168358 0.091416 0.108041
v -0.089267 0.091416 0.187132
v 0.018774 0.091416 0.216081
v 0.126814 0.091416 0.187132
v 0.205905 0.091416 0.108041
v 0.234855 0.091416 0.000000
v 0.174579 0.188356 -0.089954
v 0.108728 0.188356 -0.155805
v 0.018774 0.188356 -0.179908
v -0.071181 0.188356 -0.155805
v -0.137032 0.188356 -0.089954
v -0.161135 0.188356 0.000000
v -0.137032 0.188356 0.089954
v -0.071181 0.188356 0.155805
v 0.018774 0.188356 0.179908
v 0.108728 0.188356 0.155805
v 0.174579 0.188356 0.089954
v 0.198682 0.188356 0.000000
v 0.125832 0.261789 -0.061810
v 0.080584 0.261789 -0.107059
v 0.018774 0.261789 -0.123620
v -0.043037 0.261789 -0.107059
v -0.088285 0.261789 -0.061810
v -0.104847 0.261789 0.000000
v -0.088285 0.261789 0.061810
v -0.043037 0.261789 0.107059
v 0.018774 0.261789 0.123620
v 0.080584 0.261789 0.107059
v 0.125832 0.261789 0.061810
v 0.142394 0.261789 0.000000
v 0.108745 0.309926 -0.051945
v 0.070718 0.309926 -0.089971
v 0.018774 0.309926 -0.103890
v -0.033171 0.309926 -0.089971
v -0.071198 0.309926 -0.051945
v -0.085116 0.309926 0.000000
v -0.071198 0.309926 0.051945
v -0.033171 0.309926 0.089971
v 0.018774 0.309926 0.103890
v 0.070718 0.309926 0.089971
v 0.108745 0.309926 0.051945
v 0.122663 0.309926 0.000000
v 0.107321 0.374988 -0.051123
v 0.069896 0.374988 -0.088547
v 0.018774 0.374988 -0.102246
v -0.032349 0.374988 -0.088547
v -0.069774 0.374988 -0.051123
v -0.083472 0.374988 0.000000
v -0.069774 0.374988 0.051123
v -0.032349 0.374988 0.088547
v 0.018774 0.374988 0.102246
v 0.069896 0.374988 0.088547
v 0.107321 0.374988 0.051123
v 0.121019 0.374988 0.000000
v 0.122984 0.469062 -0.060166
v 0.078940 0.469062 -0.104211
v 0.018774 0.469062 -0.120332
v -0.041392 0.469062 -0.104211
v -0.085437 0.469062 -0.060166
v -0.101559 0.469062 0.000000
v -0.085437 0.469062 0.060166
v -0.041392 0.469062 0.104211
v 0.018774 0.469062 0.120332
v 0.078940 0.469062 0.104211
v 0.122984 0.469062 0.060166
v 0.139106 0.469062 0.000000
v 0.018774 -0.541228 0.000000
v 0.018774 0.469062 0.000000
vt 0.654233 0.240146
vt 0.610262 0.228365
vt 0.618137 0.214724
vt 0.654233 0.224396
vt 0.578074 0.196176
vt 0.591714 0.188301
vt 0.566292 0.152205
vt 0.582042 0.152205
vt 0.578074 0.108235
vt 0.591714 0.116110
vt 0.610262 0.076046
vt 0.618137 0.089686
vt 0.654233 0.064264
vt 0.654233 0.080015
vt 0.698203 0.076046
vt 0.690328 0.089686
vt 0.730392 0.108235
vt 0.716752 0.116110
vt 0.742174 0.152205
vt 0.726423 0.152205
vt 0.730392 0.196176
vt 0.716752 0.188301
vt 0.698203 0.228365
vt 0.690328 0.214724
vt 0.622246 0.207608
vt 0.654233 0.216178
vt 0.598830 0.184192
vt 0.590260 0.152205
vt 0.598830 0.120219
vt 0.622246 0.096803
vt 0.654233 0.088232
vt 0.686219 0.096803
vt 0.709635 0.120219
vt 0.718206 0.152205
vt 0.709635 0.184192
vt 0.686219 0.207608
vt 0.620534 0.210573
vt 0.654233 0.219602
vt 0.595865 0.185904
vt 0.586836 0.152205
vt 0.595865 0.118507
vt 0.620534 0.093838
vt 0.654233 0.084808
vt 0.687931 0.093838
vt 0.712600 0.118507
vt 0.721630 0.152205
vt 0.712600 0.185904
vt 0.687931 0.210573
vt 0.617110 0.216503
vt 0.654233 0.226450
vt 0.589935 0.189328
vt 0.579988 0.152205
vt 0.589935 0.115083
vt 0.617110 0.087907
vt 0.654233 0.077960
vt 0.691355 0.087907
vt 0.718531 0.115083
vt 0.728478 0.152205
vt 0.718531 0.189328
vt 0.691355 0.216503
vt 0.613686 0.222434
vt 0.654233 0.233298
vt 0.584004 0.192752
vt 0.573140 0.152205
vt 0.584004 0.111659
vt 0.613686 0.081977
vt 0.654233 0.071112
vt 0.694779 0.081977
vt 0.724461 0.111659
vt 0.735326 0.152205
vt 0.724461 0.192752
vt 0.694779 0.222434
vt 0.609235 0.230144
vt 0.654233 0.242201
vt 0.576294 0.197203
vt 0.564237 0.152205
vt 0.576294 0.107207
vt 0.609235 0.074267
vt 0.654233 0.062210
vt 0.699231 0.074267
vt 0.732171 0.107207
vt 0.744228 0.152205
vt 0.732171 0.197203
vt 0.699231 0.230144
vt 0.609235 0.230144
vt 0.654233 0.242201
vt 0.576294 0.197203
vt 0.564237 0.152205
vt 0.576294 0.107207
vt 0.609235 0.074267
vt 0.654233 0.062210
vt 0.699231 0.074267
vt 0.732171 0.107207
vt 0.744228 0.152205
vt 0.732171 0.197203
vt 0.699231 0.230144
vt 0.616768 0.217096
vt 0.654233 0.227135
vt 0.589342 0.189670
vt 0.579303 0.152205
vt 0.589342 0.114740
vt 0.616768 0.087314
vt 0.654233 0.077275
vt 0.691698 0.087314
vt 0.719124 0.114740
vt 0.729163 0.152205
vt 0.719124 0.189670
vt 0.691698 0.217096
vt 0.628489 0.196794
vt 0.654233 0.203692
vt 0.609644 0.177949
vt 0.602746 0.152205
vt 0.609644 0.126462
vt 0.628489 0.107617
vt 0.654233 0.100719
vt 0.679976 0.107617
vt 0.698821 0.126462
vt 0.705719 0.152205
vt 0.698821 0.177949
vt 0.679976 0.196794
vt 0.632598 0.189677
vt 0.654233 0.195474
vt 0.616761 0.173840
vt 0.610964 0.152205
vt 0.616761 0.130571
vt 0.632598 0.114733
vt 0.654233 0.108936
vt 0.675867 0.114733
vt 0.691705 0.130571
vt 0.697502 0.152205
vt 0.691705 0.173840
vt 0.675867 0.189677
vt 0.632941 0.189084
vt 0.654233 0.194789
vt 0.617354 0.173497
vt 0.611649 0.152205
vt 0.617354 0.130913
vt 0.632941 0.115326
vt 0.654233 0.109621
vt 0.675525 0.115326
vt 0.691112 0.130913
vt 0.696817 0.152205
vt 0.691112 0.173497
vt 0.675525 0.189084
vt 0.629174 0.195608
vt 0.654233 0.202322
vt 0.610830 0.177264
vt 0.604116 0.152205
vt 0.610830 0.127147
vt 0.629174 0.108803
vt 0.654233 0.102088
vt 0.679291 0.108803
vt 0.697635 0.127147
vt 0.704350 0.152205
vt 0.697635 0.177264
vt 0.679291 0.195608
vt 0.654233 0.152205
vt 0.654233 0.152205
vn 0.373260 -0.900785 -0.221955
vn 0.212275 -0.900784 -0.378849
vn 0.798272 0.371023 -0.474451
vn 0.454098 0.371023 -0.810023
vn -0.005589 -0.900785 -0.434230
vn -0.011751 0.371023 -0.928549
vn -0.221956 -0.900784 -0.373260
vn -0.474451 0.371023 -0.798272
vn -0.378849 -0.900784 -0.212275
vn -0.810023 0.371023 -0.454098
vn -0.434230 -0.900784 0.005589
vn -0.928549 0.371023 0.011751
vn -0.373260 -0.900785 0.221955
vn -0.798272 0.371023 0.474451
vn -0.212275 -0.900785 0.378849
vn -0.454098 0.371023 0.810023
vn 0.005589 -0.900785 0.434230
vn 0.011751 0.371023 0.928549
vn 0.221956 -0.900784 0.373260
vn 0.474451 0.371023 0.798272
vn 0.378849 -0.900784 0.212275
vn 0.810023 0.371023 0.454098
vn 0.434231 -0.900784 -0.005589
vn 0.928549 0.371023 -0.011751
vn 0.862559 0.073382 -0.500607
vn 0.496694 0.073382 -0.864818
vn -0.002259 0.073382 -0.997301
vn -0.500607 0.073382 -0.862559
vn -0.864818 0.073382 -0.496694
vn -0.997301 0.073382 0.002259
vn -0.862559 0.073382 0.500607
vn -0.496694 0.073382 0.864818
vn 0.002259 0.073382 0.997301
vn 0.500607 0.073382 0.862559
vn 0.864818 0.073382 0.496694
vn 0.997301 0.073382 -0.002259
vn 0.861274 -0.127772 -0.491814
vn 0.499979 -0.127772 -0.856560
vn 0.004714 -0.127772 -0.991792
vn -0.491814 -0.127772 -0.861275
vn -0.856560 -0.127772 -0.499979
vn -0.991792 -0.127772 -0.004714
vn -0.861275 -0.127772 0.491814
vn -0.499979 -0.127772 0.856560
vn -0.004714 -0.127772 0.991792
vn 0.491814 -0.127772 0.861274
vn 0.856560 -0.127772 0.499979
vn 0.991792 -0.127772 0.004714
vn 0.856733 -0.167222 -0.487899
vn 0.498003 -0.167222 -0.850899
vn 0.005834 -0.167222 -0.985902
vn -0.487899 -0.167222 -0.856733
vn -0.850899 -0.167222 -0.498003
vn -0.985902 -0.167222 -0.005834
vn -0.856733 -0.167222 0.487899
vn -0.498003 -0.167222 0.850899
vn -0.005834 -0.167222 0.985902
vn 0.487899 -0.167222 0.856733
vn 0.850899 -0.167222 0.498003
vn 0.985902 -0.167222 0.005834
vn 0.853037 -0.192793 -0.484932
vn 0.496285 -0.192793 -0.846482
vn 0.006555 -0.192793 -0.981218
vn -0.484932 -0.192793 -0.853037
vn -0.846482 -0.192793 -0.496285
vn -0.981218 -0.192793 -0.006555
vn -0.853037 -0.192793 0.484932
vn -0.496285 -0.192793 0.846482
vn -0.006555 -0.192793 0.981218
vn 0.484932 -0.192793 0.853037
vn 0.846482 -0.192793 0.496285
vn 0.981218 -0.192793 0.006555
vn 0.862771 -0.106258 -0.494303
vn 0.500030 -0.106258 -0.859465
vn 0.003306 -0.106258 -0.994333
vn -0.494303 -0.106258 -0.862771
vn -0.859465 -0.106258 -0.500030
vn -0.994333 -0.106258 -0.003306
vn -0.862771 -0.106258 0.494303
vn -0.500030 -0.106258 0.859465
vn -0.003306 -0.106258 0.994333
vn 0.494303 -0.106258 0.862771
vn 0.859465 -0.106258 0.500030
vn 0.994333 -0.106258 0.003306
vn 0.850160 0.174589 -0.496736
vn 0.487892 0.174589 -0.855266
vn -0.005106 0.174589 -0.984628
vn -0.496736 0.174589 -0.850160
vn -0.855266 0.174589 -0.487892
vn -0.984628 0.174589 0.005106
vn -0.850160 0.174589 0.496736
vn -0.487892 0.174589 0.855266
vn 0.005106 0.174589 0.984628
vn 0.496736 0.174589 0.850160
vn 0.855266 0.174589 0.487892
vn 0.984628 0.174589 -0.005106
vn 0.762713 0.458975 -0.455644
vn 0.432707 0.458975 -0.775956
vn -0.013243 0.458975 -0.888351
vn -0.455644 0.458975 -0.762713
vn -0.775956 0.458975 -0.432707
vn -0.888351 0.458975 0.013243
vn -0.762713 0.458975 0.455644
vn -0.432707 0.458975 0.775956
vn 0.013243 0.458975 0.888351
vn 0.455644 0.458975 0.762713
vn 0.775956 0.458975 0.432707
vn 0.888351 0.458975 -0.013243
vn 0.716411 0.545337 -0.435159
vn 0.402850 0.545337 -0.735065
vn -0.018654 0.545337 -0.838010
vn -0.435159 0.545337 -0.716411
vn -0.735065 0.545337 -0.402850
vn -0.838010 0.545337 0.018654
vn -0.716411 0.545336 0.435160
vn -0.402850 0.545337 0.735065
vn 0.018654 0.545337 0.838010
vn 0.435160 0.545337 0.716411
vn 0.735065 0.545337 0.402850
vn 0.838010 0.545337 -0.018654
vn 0.845838 0.196374 -0.495979
vn 0.484528 0.196374 -0.852450
vn -0.006611 0.196374 -0.980507
vn -0.495979 0.196374 -0.845838
vn -0.852449 0.196374 -0.484528
vn -0.980507 0.196374 0.006611
vn -0.845838 0.196374 0.495979
vn -0.484528 0.196374 0.852449
vn 0.006611 0.196374 0.980507
vn 0.495979 0.196374 0.845838
vn 0.852450 0.196374 0.484528
vn 0.980507 0.196374 -0.006611
vn 0.863506 -0.105589 -0.493162
vn 0.501236 -0.105589 -0.858844
vn 0.004661 -0.105589 -0.994399
vn -0.493163 -0.105589 -0.863505
vn -0.858844 -0.105589 -0.501236
vn -0.994399 -0.105589 -0.004661
vn -0.863506 -0.105589 0.493162
vn -0.501236 -0.105589 0.858844
vn -0.004661 -0.105589 0.994399
vn 0.493163 -0.105589 0.863505
vn 0.858844 -0.105589 0.501236
vn 0.994399 -0.105589 0.004661
vn 0.634906 0.683101 -0.360924
vn 0.369383 0.683101 -0.630023
vn 0.004883 0.683101 -0.730307
vn -0.360925 0.683101 -0.634906
vn -0.630023 0.683101 -0.369383
vn -0.730307 0.683101 -0.004883
vn -0.634906 0.683101 0.360924
vn -0.369383 0.683101 0.630023
vn -0.004883 0.683101 0.730307
vn 0.360925 0.683101 0.634906
vn 0.630023 0.683101 0.369383
vn 0.730307 0.683101 0.004883
vn 0.000000 -1.000000 -0.000000
vn 0.000000 1.000000 0.000000
s 1
g pCylinder33
usemtl lambert10SG
f 1/1/1 2/2/2 13/4/3
f 13/4/3 2/2/2 14/3/4
f 2/2/2 3/5/5 14/3/4
f 14/3/4 3/5/5 15/6/6
f 3/5/5 4/7/7 15/6/6
f 15/6/6 4/7/7 16/8/8
f 4/7/7 5/9/9 16/8/8
f 16/8/8 5/9/9 17/10/10
f 5/9/9 6/11/11 17/10/10
f 17/10/10 6/11/11 18/12/12
f 6/11/11 7/13/13 18/12/12
f 18/12/12 7/13/13 19/14/14
f 7/13/13 8/15/15 19/14/14
f 19/14/14 8/15/15 20/16/16
f 8/15/15 9/17/17 20/16/16
f 20/16/16 9/17/17 21/18/18
f 9/17/17 10/19/19 21/18/18
f 21/18/18 10/19/19 22/20/20
f 10/19/19 11/21/21 22/20/20
f 22/20/20 11/21/21 23/22/22
f 11/21/21 12/23/23 23/22/22
f 23/22/22 12/23/23 24/24/24
f 12/23/23 1/1/1 24/24/24
f 24/24/24 1/1/1 13/4/3
f 13/4/3 14/3/4 25/26/25
f 25/26/25 14/3/4 26/25/26
f 14/3/4 15/6/6 26/25/26
f 26/25/26 15/6/6 27/27/27
f 15/6/6 16/8/8 27/27/27
f 27/27/27 16/8/8 28/28/28
f 16/8/8 17/10/10 28/28/28
f 28/28/28 17/10/10 29/29/29
f 17/10/10 18/12/12 29/29/29
f 29/29/29 18/12/12 30/30/30
f 18/12/12 19/14/14 30/30/30
f 30/30/30 19/14/14 31/31/31
f 19/14/14 20/16/16 31/31/31
f 31/31/31 20/16/16 32/32/32
f 20/16/16 21/18/18 32/32/32
f 32/32/32 21/18/18 33/33/33
f 21/18/18 22/20/20 33/33/33
f 33/33/33 22/20/20 34/34/34
f 22/20/20 23/22/22 34/34/34
f 34/34/34 23/22/22 35/35/35
f 23/22/22 24/24/24 35/35/35
f 35/35/35 24/24/24 36/36/36
f 24/24/24 13/4/3 36/36/36
f 36/36/36 13/4/3 25/26/25
f 25/26/25 26/25/26 37/38/37
f 37/38/37 26/25/26 38/37/38
f 26/25/26 27/27/27 38/37/38
f 38/37/38 27/27/27 39/39/39
f 27/27/27 28/28/28 39/39/39
f 39/39/39 28/28/28 40/40/40
f 28/28/28 29/29/29 40/40/40
f 40/40/40 29/29/29 41/41/41
f 29/29/29 30/30/30 41/41/41
f 41/41/41 30/30/30 42/42/42
f 30/30/30 31/31/31 42/42/42
f 42/42/42 31/31/31 43/43/43
f 31/31/31 32/32/32 43/43/43
f 43/43/43 32/32/32 44/44/44
f 32/32/32 33/33/33 44/44/44
f 44/44/44 33/33/33 45/45/45
f 33/33/33 34/34/34 45/45/45
f 45/45/45 34/34/34 46/46/46
f 34/34/34 35/35/35 46/46/46
f 46/46/46 35/35/35 47/47/47
f 35/35/35 36/36/36 47/47/47
f 47/47/47 36/36/36 48/48/48
f 36/36/36 25/26/25 48/48/48
f 48/48/48 25/26/25 37/38/37
f 37/38/37 38/37/38 49/50/49
f 49/50/49 38/37/38 50/49/50
f 38/37/38 39/39/39 50/49/50
f 50/49/50 39/39/39 51/51/51
f 39/39/39 40/40/40 51/51/51
f 51/51/51 40/40/40 52/52/52
f 40/40/40 41/41/41 52/52/52
f 52/52/52 41/41/41 53/53/53
f 41/41/41 42/42/42 53/53/53
f 53/53/53 42/42/42 54/54/54
f 42/42/42 43/43/43 54/54/54
f 54/54/54 43/43/43 55/55/55
f 43/43/43 44/44/44 55/55/55
f 55/55/55 44/44/44 56/56/56
f 44/44/44 45/45/45 56/56/56
f 56/56/56 45/45/45 57/57/57
f 45/45/45 46/46/46 57/57/57
f 57/57/57 46/46/46 58/58/58
f 46/46/46 47/47/47 58/58/58
f 58/58/58 47/47/47 59/59/59
f 47/47/47 48/48/48 59/59/59
f 59/59/59 48/48/48 60/60/60
f 48/48/48 37/38/37 60/60/60
f 60/60/60 37/38/37 49/50/49
f 49/50/49 50/49/50 61/62/61
f 61/62/61 50/49/50 62/61/62
f 50/49/50 51/51/51 62/61/62
f 62/61/62 51/51/51 63/63/63
f 51/51/51 52/52/52 63/63/63
f 63/63/63 52/52/52 64/64/64
f 52/52/52 53/53/53 64/64/64
f 64/64/64 53/53/53 65/65/65
f 53/53/53 54/54/54 65/65/65
f 65/65/65 54/54/54 66/66/66
f 54/54/54 55/55/55 66/66/66
f 66/66/66 55/55/55 67/67/67
f 55/55/55 56/56/56 67/67/67
f 67/67/67 56/56/56 68/68/68
f 56/56/56 57/57/57 68/68/68
f 68/68/68 57/57/57 69/69/69
f 57/57/57 58/58/58 69/69/69
f 69/69/69 58/58/58 70/70/70
f 58/58/58 59/59/59 70/70/70
f 70/70/70 59/59/59 71/71/71
f 59/59/59 60/60/60 71/71/71
f 71/71/71 60/60/60 72/72/72
f 60/60/60 49/50/49 72/72/72
f 72/72/72 49/50/49 61/62/61
f 61/62/61 62/61/62 73/74/73
f 73/74/73 62/61/62 74/73/74
f 62/61/62 63/63/63 74/73/74
f 74/73/74 63/63/63 75/75/75
f 63/63/63 64/64/64 75/75/75
f 75/75/75 64/64/64 76/76/76
f 64/64/64 65/65/65 76/76/76
f 76/76/76 65/65/65 77/77/77
f 65/65/65 66/66/66 77/77/77
f 77/77/77 66/66/66 78/78/78
f 66/66/66 67/67/67 78/78/78
f 78/78/78 67/67/67 79/79/79
f 67/67/67 68/68/68 79/79/79
f 79/79/79 68/68/68 80/80/80
f 68/68/68 69/69/69 80/80/80
f 80/80/80 69/69/69 81/81/81
f 69/69/69 70/70/70 81/81/81
f 81/81/81 70/70/70 82/82/82
f 70/70/70 71/71/71 82/82/82
f 82/82/82 71/71/71 83/83/83
f 71/71/71 72/72/72 83/83/83
f 83/83/83 72/72/72 84/84/84
f 72/72/72 61/62/61 84/84/84
f 84/84/84 61/62/61 73/74/73
f 73/74/73 74/73/74 85/86/85
f 85/86/85 74/73/74 86/85/86
f 74/73/74 75/75/75 86/85/86
f 86/85/86 75/75/75 87/87/87
f 75/75/75 76/76/76 87/87/87
f 87/87/87 76/76/76 88/88/88
f 76/76/76 77/77/77 88/88/88
f 88/88/88 77/77/77 89/89/89
f 77/77/77 78/78/78 89/89/89
f 89/89/89 78/78/78 90/90/90
f 78/78/78 79/79/79 90/90/90
f 90/90/90 79/79/79 91/91/91
f 79/79/79 80/80/80 91/91/91
f 91/91/91 80/80/80 92/92/92
f 80/80/80 81/81/81 92/92/92
f 92/92/92 81/81/81 93/93/93
f 81/81/81 82/82/82 93/93/93
f 93/93/93 82/82/82 94/94/94
f 82/82/82 83/83/83 94/94/94
f 94/94/94 83/83/83 95/95/95
f 83/83/83 84/84/84 95/95/95
f 95/95/95 84/84/84 96/96/96
f 84/84/84 73/74/73 96/96/96
f 96/96/96 73/74/73 85/86/85
f 85/86/85 86/85/86 97/98/97
f 97/98/97 86/85/86 98/97/98
f 86/85/86 87/87/87 98/97/98
f 98/97/98 87/87/87 99/99/99
f 87/87/87 88/88/88 99/99/99
f 99/99/99 88/88/88 100/100/100
f 88/88/88 89/89/89 100/100/100
f 100/100/100 89/89/89 101/101/101
f 89/89/89 90/90/90 101/101/101
f 101/101/101 90/90/90 102/102/102
f 90/90/90 91/91/91 102/102/102
f 102/102/102 91/91/91 103/103/103
f 91/91/91 92/92/92 103/103/103
f 103/103/103 92/92/92 104/104/104
f 92/92/92 93/93/93 104/104/104
f 104/104/104 93/93/93 105/105/105
f 93/93/93 94/94/94 105/105/105
f 105/105/105 94/94/94 106/106/106
f 94/94/94 95/95/95 106/106/106
f 106/106/106 95/95/95 107/107/107
f 95/95/95 96/96/96 107/107/107
f 107/107/107 96/96/96 108/108/108
f 96/96/96 85/86/85 108/108/108
f 108/108/108 85/86/85 97/98/97
f 97/98/97 98/97/98 109/110/109
f 109/110/109 98/97/98 110/109/110
f 98/97/98 99/99/99 110/109/110
f 110/109/110 99/99/99 111/111/111
f 99/99/99 100/100/100 111/111/111
f 111/111/111 100/100/100 112/112/112
f 100/100/100 101/101/101 112/112/112
f 112/112/112 101/101/101 113/113/113
f 101/101/101 102/102/102 113/113/113
f 113/113/113 102/102/102 114/114/114
f 102/102/102 103/103/103 114/114/114
f 114/114/114 103/103/103 115/115/115
f 103/103/103 104/104/104 115/115/115
f 115/115/115 104/104/104 116/116/116
f 104/104/104 105/105/105 116/116/116
f 116/116/116 105/105/105 117/117/117
f 105/105/105 106/106/106 117/117/117
f 117/117/117 106/106/106 118/118/118
f 106/106/106 107/107/107 118/118/118
f 118/118/118 107/107/107 119/119/119
f 107/107/107 108/108/108 119/119/119
f 119/119/119 108/108/108 120/120/120
f 108/108/108 97/98/97 120/120/120
f 120/120/120 97/98/97 109/110/109
f 109/110/109 110/109/110 121/122/121
f 121/122/121 110/109/110 122/121/122
f 110/109/110 111/111/111 122/121/122
f 122/121/122 111/111/111 123/123/123
f 111/111/111 112/112/112 123/123/123
f 123/123/123 112/112/112 124/124/124
f 112/112/112 113/113/113 124/124/124
f 124/124/124 113/113/113 125/125/125
f 113/113/113 114/114/114 125/125/125
f 125/125/125 114/114/114 126/126/126
f 114/114/114 115/115/115 126/126/126
f 126/126/126 115/115/115 127/127/127
f 115/115/115 116/116/116 127/127/127
f 127/127/127 116/116/116 128/128/128
f 116/116/116 117/117/117 128/128/128
f 128/128/128 117/117/117 129/129/129
f 117/117/117 118/118/118 129/129/129
f 129/129/129 118/118/118 130/130/130
f 118/118/118 119/119/119 130/130/130
f 130/130/130 119/119/119 131/131/131
f 119/119/119 120/120/120 131/131/131
f 131/131/131 120/120/120 132/132/132
f 120/120/120 109/110/109 132/132/132
f 132/132/132 109/110/109 121/122/121
f 121/122/121 122/121/122 133/134/133
f 133/134/133 122/121/122 134/133/134
f 122/121/122 123/123/123 134/133/134
f 134/133/134 123/123/123 135/135/135
f 123/123/123 124/124/124 135/135/135
f 135/135/135 124/124/124 136/136/136
f 124/124/124 125/125/125 136/136/136
f 136/136/136 125/125/125 137/137/137
f 125/125/125 126/126/126 137/137/137
f 137/137/137 126/126/126 138/138/138
f 126/126/126 127/127/127 138/138/138
f 138/138/138 127/127/127 139/139/139
f 127/127/127 128/128/128 139/139/139
f 139/139/139 128/128/128 140/140/140
f 128/128/128 129/129/129 140/140/140
f 140/140/140 129/129/129 141/141/141
f 129/129/129 130/130/130 141/141/141
f 141/141/141 130/130/130 142/142/142
f 130/130/130 131/131/131 142/142/142
f 142/142/142 131/131/131 143/143/143
f 131/131/131 132/132/132 143/143/143
f 143/143/143 132/132/132 144/144/144
f 132/132/132 121/122/121 144/144/144
f 144/144/144 121/122/121 133/134/133
f 133/134/133 134/133/134 145/146/145
f 145/146/145 134/133/134 146/145/146
f 134/133/134 135/135/135 146/145/146
f 146/145/146 135/135/135 147/147/147
f 135/135/135 136/136/136 147/147/147
f 147/147/147 136/136/136 148/148/148
f 136/136/136 137/137/137 148/148/148
f 148/148/148 137/137/137 149/149/149
f 137/137/137 138/138/138 149/149/149
f 149/149/149 138/138/138 150/150/150
f 138/138/138 139/139/139 150/150/150
f 150/150/150 139/139/139 151/151/151
f 139/139/139 140/140/140 151/151/151
f 151/151/151 140/140/140 152/152/152
f 140/140/140 141/141/141 152/152/152
f 152/152/152 141/141/141 153/153/153
f 141/141/141 142/142/142 153/153/153
f 153/153/153 142/142/142 154/154/154
f 142/142/142 143/143/143 154/154/154
f 154/154/154 143/143/143 155/155/155
f 143/143/143 144/144/144 155/155/155
f 155/155/155 144/144/144 156/156/156
f 144/144/144 133/134/133 156/156/156
f 156/156/156 133/134/133 145/146/145
f 2/2/2 1/1/1 157/157/157
f 3/5/5 2/2/2 157/157/157
f 4/7/7 3/5/5 157/157/157
f 5/9/9 4/7/7 157/157/157
f 6/11/11 5/9/9 157/157/157
f 7/13/13 6/11/11 157/157/157
f 8/15/15 7/13/13 157/157/157
f 9/17/17 8/15/15 157/157/157
f 10/19/19 9/17/17 157/157/157
f 11/21/21 10/19/19 157/157/157
f 12/23/23 11/21/21 157/157/157
f 1/1/1 12/23/23 157/157/157
f 145/146/145 146/145/146 158/158/158
f 146/145/146 147/147/147 158/158/158
f 147/147/147 148/148/148 158/158/158
f 148/148/148 149/149/149 158/158/158
f 149/149/149 150/150/150 158/158/158
f 150/150/150 151/151/151 158/158/158
f 151/151/151 152/152/152 158/158/158
f 152/152/152 153/153/153 158/158/158
f 153/153/153 154/154/154 158/158/158
f 154/154/154 155/155/155 158/158/158
f 155/155/155 156/156/156 158/158/158
f 156/156/156 145/146/145 158/158/158
